<?xml version="1.0" encoding="utf-8"?>
<!-- Generator: Adobe Illustrator 24.1.2, SVG Export Plug-In . SVG Version: 6.00 Build 0)  -->
<svg version="1.1" id="Layer_1" xmlns="http://www.w3.org/2000/svg" xmlns:xlink="http://www.w3.org/1999/xlink" x="0px" y="0px"
	 viewBox="0 0 250 250" style="enable-background:new 0 0 250 250;" xml:space="preserve">
<style type="text/css">
	.st0{fill:#E1DEEE;}
	.st1{fill:#C0D6E7;}
	.st2{fill:#FFFFFF;}
	.st3{fill:#9087AB;stroke:#231F20;stroke-width:3;stroke-miterlimit:10;}
	.st4{fill:none;stroke:#231F20;stroke-width:3;stroke-miterlimit:10;}
	.st5{fill:#231F20;stroke:#231F20;stroke-width:3;stroke-miterlimit:10;}
	.st6{fill:#231F20;stroke:#231F20;stroke-width:0.5;stroke-miterlimit:10;}
	.st7{fill:#231F20;}
	.st8{fill:none;stroke:#231F20;stroke-width:3;stroke-linecap:round;stroke-miterlimit:10;}
	.st9{fill:#C0D6E7;stroke:#231F20;stroke-width:3;stroke-miterlimit:10;}
	.st10{fill:none;stroke:#FFFFFF;stroke-width:2;stroke-linecap:round;stroke-miterlimit:10;}
	.st11{fill:#FCFDFF;stroke:#231F20;stroke-width:3;stroke-miterlimit:10;}
	.st12{fill:#FFFFFF;stroke:#231F20;stroke-width:3;stroke-miterlimit:10;}
	.st13{font-family:'Roboto-Bold';}
	.st14{font-size:8.4213px;}
	.st15{fill:#FFFFFF;stroke:#231F20;stroke-width:2;stroke-miterlimit:10;}
	.st16{fill:none;stroke:#000000;stroke-width:3;stroke-miterlimit:10;}
	.st17{fill:none;stroke:#231F20;stroke-width:2;stroke-linecap:round;stroke-miterlimit:10;}
	.st18{fill:none;stroke:#231F20;stroke-width:4;stroke-linecap:round;stroke-miterlimit:10;}
	.st19{fill:#FFFFFF;stroke:#FFFFFF;stroke-miterlimit:10;}
	.st20{fill:#231F20;stroke:#231F20;stroke-miterlimit:10;}
	.st21{fill:#C0D6E8;}
	.st22{fill:none;}
	.st23{fill:#C0D6E7;stroke:#231F20;stroke-width:6;stroke-linecap:round;stroke-miterlimit:10;}
	.st24{fill:#FFFFFF;stroke:#231F20;stroke-width:5;stroke-miterlimit:10;}
	.st25{fill:#231F20;stroke:#FFFFFF;stroke-width:2;stroke-linecap:round;stroke-miterlimit:10;}
	.st26{fill:#FFFFFF;stroke:#FFFFFF;stroke-linecap:round;stroke-miterlimit:10;}
</style>
<g>
	<circle class="st0" cx="127.5" cy="129" r="76.4"/>
	<path class="st1" d="M128,206.9c13.4,0.6,16.8,0.6,20.5,0c6.4-1,11.6-2.7,15.1-4.1c-1.2-8.4-2.4-16.8-3.6-25.2
		c-2.7-9.6-5.5-19.2-8.2-28.9c-16.9-0.8-33.7-1.6-50.6-2.3c-2.9,4.3-5.7,8.5-8.6,12.8c-2.5,7.8-5.1,15.6-7.6,23.4
		c-0.2,4.6-0.5,9.3-0.7,13.9c2.6,1.8,6.7,4.2,12.1,6.3C100,204.2,105.6,205.9,128,206.9z"/>
	<path class="st2" d="M102.6,181.3c-1.6,4.1-2.2,7.6-2.7,11c-0.6,3.5-0.8,6.4-1,8.5c4.5,2,8.9,3.9,13.4,5.9
		c4.3-0.1,8.5-0.3,12.8-0.4c4-0.1,8-0.1,11.9-0.2c3.6-0.3,7.1-0.6,10.7-0.9c0-5.6-0.6-10.3-1.2-13.6c-0.9-4.7-1.7-8.8-4.3-13.4
		c-2.6-4.6-5.9-7.7-8.4-9.5c-3-1.3-7.2-2.4-12.1-2.1c-3.1,0.2-9.1,0.6-13.7,5.1C105.3,174.3,104.1,177.3,102.6,181.3z"/>
	<path class="st3" d="M106.7,152c1.1,2.5,3,5.9,5.9,9.4c1.6,1.9,5.2,6.1,11.1,9.2c4.9,2.6,8.6,4.6,12.9,3.7
		c9.1-1.8,12.8-15.1,13.8-18.4c1.4-5,1.5-9.4,1.4-12.2l-44.3,4C107.3,149.2,107,150.6,106.7,152z"/>
	<path class="st1" d="M89.6,100.8c0.7-5.8-0.3-7.2,0.4-11.6c0.5-3.1,1.8-11.1,6.9-12.8c5.4-1.9,11.4,4.4,11.7,4.7
		c3.2,3.5,4,7.5,4.2,9.2c3.7-0.7,8.3-1.2,13.6-1c6.4,0.2,11.3,1.4,13.6,2c3,0.8,5.5,1.7,7.4,2.5c2.1-3.1,4.4-5.2,6-6.5
		c2.2-1.7,4-3.3,7-4c1.7-0.4,5.4-1.3,8,0.7c2.2,1.7,2.4,4.6,2.6,7c0.1,1.6,0,4-1.5,9.3c-1.5,5-2.8,6.2-3.6,8.6c0,0-0.3,1-0.6,2.1
		c-0.8,4,0.6,9.8,0.9,11.4c0.6,2.9,0.5,7.3-2.5,13.2c-1.7,3-4.7,7.6-9.8,11.5c-10.3,7.7-21.9,7.6-29,7.7c-10.2,0-17.4-2.5-20-3.4
		c-6.7-2.5-10.6-5.6-11.8-6.6c-1.9-1.6-4.2-3.5-6.1-6.7c-3.6-5.8-3.6-11.5-3.6-13.6c0-7.1,2.9-12.2,4.3-14.4
		C88.3,107.9,89.1,104.8,89.6,100.8z"/>
	<path class="st2" d="M111.7,126.7c-3.2-0.8-4.8-1.2-6-1.2c-0.8,0-6,0.1-8.6,3.4c-3.5,4.5,0.5,12.8,0.7,13.1c2.9,5.7,8.3,8,11.4,9.4
		c4.2,1.8,7.8,2.2,10.4,2.4c4.6,0.4,8.4,0.5,12.4-1.3c3.6-1.6,6.4-4.4,6.4-4.4c0.1-0.1,0.2-0.2,0.2-0.2c2.2-2.3,3.5-4.7,4.2-6.3
		c0.4-0.8,1.3-3.1,0.7-5.9c-0.1-0.7-0.6-2.7-2.3-4.4c-1.7-1.7-3.5-2.1-5.3-2.5c-2.4-0.6-4.3-0.4-5.4-0.3c-2.3,0.2-5.3,0.3-8,2.3
		c-0.5,0.3-0.8,0.6-1,0.8c-0.2-0.2-0.5-0.6-0.9-0.9C119.1,129.5,117.1,128.1,111.7,126.7z"/>
	<path class="st4" d="M89.6,100.8c0.7-5.8-0.3-7.2,0.4-11.6c0.5-3.1,1.8-11.1,6.9-12.8c5.4-1.9,11.4,4.4,11.7,4.7
		c3.2,3.5,4,7.5,4.2,9.2c3.7-0.7,8.3-1.2,13.6-1c6.4,0.2,11.3,1.4,13.6,2c3,0.8,5.5,1.7,7.4,2.5c2.1-3.1,4.4-5.2,6-6.5
		c2.2-1.7,4-3.3,7-4c1.7-0.4,5.4-1.3,8,0.7c2.2,1.7,2.4,4.6,2.6,7c0.1,1.6,0,4-1.5,9.3c-1.5,5-2.8,6.2-3.6,8.6c0,0-0.3,1-0.6,2.1
		c-0.8,4,0.6,9.8,0.9,11.4c0.6,2.9,0.5,7.3-2.5,13.2c-1.7,3-4.7,7.6-9.8,11.5c-10.3,7.7-21.9,7.6-29,7.7c-10.2,0-17.4-2.5-20-3.4
		c-6.7-2.5-10.6-5.6-11.8-6.6c-1.9-1.6-4.2-3.5-6.1-6.7c-3.6-5.8-3.6-11.5-3.6-13.6c0-7.1,2.9-12.2,4.3-14.4
		C88.3,107.9,89.1,104.8,89.6,100.8z"/>
	<path class="st5" d="M120.8,134.3c-0.1,1.8-0.2,3.7-0.2,5.5"/>
	<path class="st6" d="M96.7,98.8c-0.2-2.2-0.2-4.1-0.2-5.6c0-3.5,0.3-4.7,0.4-5.2c0.5-1.8,1.1-4.2,2.7-4.7c2.1-0.6,4.6,2.4,5.7,4.4
		c1.6,2.9,1.3,5.8,1.1,7C103.2,96.1,99.9,97.4,96.7,98.8z"/>
	<path class="st6" d="M159.7,104.2c1.1-0.9,2.8-2.5,4-5c1.5-3.1,2.7-8.3,0.7-9.6c-2.2-1.5-7.2,2.5-7.7,2.9c-2.5,2.1-3.8,4.5-4.5,5.9
		C154.6,100.3,157.1,102.2,159.7,104.2z"/>
	<path class="st7" d="M114.2,120.5c-1.2,1.5-3.9,1.7-5.5,0.2c-1.6-1.5-1.5-4.4,0.1-5.6c1.1-0.8,2.6-0.7,3.6-0.2
		C114.4,115.9,115.5,118.8,114.2,120.5z"/>
	<path class="st7" d="M134.8,124.9c-1.6-1.1-1.9-3.9-0.4-5.5c1.5-1.7,4.3-1.6,5.6-0.1c0.9,1,0.8,2.6,0.3,3.6
		C139.4,124.9,136.6,126.1,134.8,124.9z"/>
	<path class="st2" d="M117.1,103.3c0.9,0.5,1.7,1.6,1.5,2.7c-0.3,1.6-2.6,2.2-4.2,2.2c-1,0-2.9-0.5-3.1-1.4
		C111.1,105.2,114.8,102.2,117.1,103.3z"/>
	<path class="st2" d="M133.6,108.5c-0.3-1,0-2.3,0.9-2.9c1.3-0.9,3.4,0.3,4.5,1.5c0.7,0.8,1.7,2.4,1.1,3.2
		C139.2,111.5,134.4,110.9,133.6,108.5z"/>
	<path class="st7" d="M121.3,130.5c-0.4,0-0.4-0.3-1.1-0.7c-0.4-0.3-0.8-0.5-1.3-0.6c-0.1,0-1.3-0.2-1.9,0.6
		c-0.4,0.5-0.4,1.2-0.3,1.6c0.1,0.7,0.4,1.2,0.7,1.8c0.4,0.7,0.9,1.1,1,1.2c0.8,0.8,1.6,1.1,1.9,1.2c0.4,0.1,0.6,0.2,0.9,0.2
		c0.8,0,1.4-0.3,2.1-0.8c0.4-0.2,1-0.7,1.6-1.5c0.3-0.4,0.6-0.7,0.7-1.3c0.1-0.3,0.2-0.9,0-1.5c-0.2-0.4-0.5-0.7-0.6-0.7
		c-0.1-0.1-0.5-0.4-1.1-0.4c-0.4,0-0.8,0.1-1.2,0.3C121.8,130.2,121.7,130.5,121.3,130.5z"/>
	<path class="st8" d="M112.7,142.8c1.1-0.7,3.6-1.9,6.8-1.9c4.5-0.1,7.6,2.1,8.6,2.9"/>
	<path class="st4" d="M151.8,148.5c2.6,6.4,5.3,13.9,7.4,22.5c2.4,9.5,3.7,18.2,4.4,25.7"/>
	<path class="st4" d="M92.7,164.7c-2.1,3.5-4.6,8.1-6.4,13.9c-1.8,5.6-2.6,10.7-3,14.7"/>
	<path class="st9" d="M90.5,151.4c2.8-1.5,8.5-4.6,13.2-2.1c0.6,0.3,2.1,1.1,2.9,2.7c0.8,1.5,0.7,3,0.6,3.7
		c-0.5,5.3-5.9,11.3-6.6,12c-3.4,3.6-6.8,7.3-12.6,9c-2.4,0.7-6.9,2-9.5-0.4c-2.2-2-1.9-5.5-1.8-7.1
		C77.6,158.5,88.9,152.2,90.5,151.4z"/>
	<g>
		<line class="st10" x1="138.6" y1="160.1" x2="135.7" y2="160.5"/>
		<line class="st10" x1="129.5" y1="161.3" x2="126.6" y2="161.7"/>
		<line class="st10" x1="137.2" y1="160.3" x2="136.9" y2="165.3"/>
		<line class="st10" x1="128" y1="161.5" x2="129.9" y2="166.3"/>
		<line class="st10" x1="132.8" y1="161.1" x2="136.6" y2="165.5"/>
		<line class="st10" x1="132.6" y1="161.2" x2="130.1" y2="166.3"/>
	</g>
	<path class="st11" d="M25.9,94.5c0-0.3,0.3-6.3,5.5-9.4c3.5-2,7.9-1.9,11.4,0.3c0.2-0.8,1.2-5.7,5.7-8.3c4.2-2.4,9.8-2,14,1.3
		c0-0.5,0.3-4.9,4.2-7.5c3.8-2.5,7.9-1.1,8.6-0.9c0.5,0.2,5.7,2.2,6.3,7.1c0.5,3.5-1.6,6.1-2.1,6.7c3.8,2.5,5.5,6.7,4.5,9.7
		c-1.3,3.9-7.8,6.7-13.8,3.4c-0.2,0.8-1.4,6.3-6.8,9.1c-6.3,3.4-12.6,0-13-0.3c0.9,4.8-2.1,9.3-6.2,10.4c-3.4,0.9-7.2-0.7-9.4-3.9
		c-1.3,6-6.1,9.4-9.6,8.8c-3.9-0.6-7.8-6.7-5.5-13.6c-3.3-2.2-4.3-6.6-2.5-9.8C19.1,94.9,22.6,93.5,25.9,94.5z"/>
	<path class="st12" d="M229.3,153.7c0.1-0.3,1.5-6.2-2.8-10.5c-2.8-2.9-7.1-4-11.1-2.8c0.1-0.8,0.4-5.8-3.2-9.5
		c-3.4-3.5-8.8-4.6-13.8-2.6c0.1-0.4,1.1-4.8-2-8.4c-3-3.4-7.2-3.3-8-3.2c-0.6,0-6.1,0.5-8.1,5.1c-1.4,3.2-0.1,6.3,0.2,7
		c-4.3,1.4-7.2,4.9-7,8.1c0.2,4.1,5.6,8.5,12.3,7c-0.1,0.8-0.4,6.4,4,10.6c5.2,5,12.1,3.4,12.6,3.3c-2.2,4.4-0.6,9.5,3.1,11.7
		c3,1.8,7.1,1.3,10.1-1.2c-0.4,6.1,3.3,10.7,6.8,11.1c3.9,0.4,9.3-4.3,9.1-11.6c3.8-1.2,6-5.1,5.1-8.7
		C235.8,155.9,232.8,153.6,229.3,153.7z"/>
	<text transform="matrix(0.9017 -0.4323 0.4323 0.9017 33.1989 106.0379)" class="st7 st13 st14">Social life</text>
	<text transform="matrix(0.7789 0.6271 -0.6271 0.7789 187.594 135.1593)" class="st7 st13 st14">Academics</text>
	<path class="st15" d="M56.8,117.9c-0.2-0.1-0.5-0.3-0.9-0.3c-0.1,0-1.6-0.2-2.3,0.8c-0.4,0.6-0.3,1.2-0.3,1.5
		c-1.7,0.6-2.9,1.8-2.8,2.9c0,0.2,0,1,0.7,1.4c0.5,0.3,1.1,0.2,1.2,0.2c0.2,0.7,0.6,1.2,1.2,1.4c0.9,0.2,1.9-0.5,2.2-1.7
		c0.3-0.7,0.5-1.5,0.8-2.2c0.4,0.1,1.1,0.1,1.9-0.1c0.3-0.1,2.4-0.7,2.6-2.4c0.1-1.2-0.9-2.8-2.2-2.8
		C58,116.6,57.2,117.1,56.8,117.9z"/>
	<path class="st15" d="M71.1,128.8c0.1-0.3,0.6-1.4,0.1-1.9c-0.2-0.2-0.4-0.3-0.5-0.3c0.5-0.9,0.4-1.6-0.1-1.8
		c-0.1,0-0.5-0.1-0.9,0.1c-0.4,0.2-0.6,0.5-0.6,0.5c0,0-0.7-0.1-1.1,0.4c-0.3,0.4-0.4,0.9-0.2,1.3c0.2,0.2,0.4,0.5,0.6,0.7
		c-0.2,0.2-0.5,0.5-0.8,0.9c0,0,0,0,0,0.1c-0.2,0.4-0.3,1.1,0,1.5c0.4,0.6,1.5,0.4,1.6,0.3C70.5,130.4,71,129.2,71.1,128.8z"/>
	<path class="st15" d="M184.6,163.1c0.1-0.2,0.1-0.5,0.1-1c0-0.1-0.1-1.6-1.3-2c-0.6-0.2-1.2,0-1.5,0.1c-1-1.5-2.4-2.4-3.5-2.1
		c-0.2,0-1,0.3-1.2,1c-0.2,0.6,0,1.1,0.1,1.2c-0.6,0.3-1,0.9-1,1.5c0,0.9,0.9,1.8,2.2,1.7c0.8,0.1,1.6,0.2,2.3,0.3
		c0,0.4,0.1,1.1,0.5,1.8c0.1,0.2,1.3,2.2,2.9,1.9c1.2-0.2,2.5-1.5,2.2-2.8C186.2,163.9,185.5,163.3,184.6,163.1z"/>
	<path class="st15" d="M167.4,159.7c0-0.4,0.2-1.5-0.5-1.9c-0.2-0.1-0.4-0.2-0.6-0.2c0.2-1,0-1.7-0.6-1.7c-0.1,0-0.5,0-0.9,0.4
		c-0.3,0.3-0.4,0.6-0.4,0.7c0,0-0.7,0.1-1,0.7c-0.2,0.4-0.1,0.9,0.2,1.3c0.3,0.2,0.5,0.3,0.8,0.5c-0.1,0.2-0.4,0.6-0.5,1.1
		c0,0,0,0,0,0.1c-0.1,0.5,0,1.1,0.4,1.5c0.6,0.4,1.5,0,1.6-0.1C167.2,161.5,167.3,160.1,167.4,159.7z"/>
	<path class="st2" d="M75.2,185.1c4.6,4.1,22.6,19.4,50.2,20c25.8,0.6,43.7-11.8,48.9-15.8l10.5,17.2l-52.2,10.9l-49.3-10.9
		l-15.9-14L75.2,185.1z"/>
</g>
</svg>
