<?xml version="1.0" encoding="utf-8"?>
<!-- Generator: Adobe Illustrator 24.1.2, SVG Export Plug-In . SVG Version: 6.00 Build 0)  -->
<svg version="1.1" id="Layer_1" xmlns="http://www.w3.org/2000/svg" xmlns:xlink="http://www.w3.org/1999/xlink" x="0px" y="0px"
	 viewBox="0 0 250 250" style="enable-background:new 0 0 250 250;" xml:space="preserve">
<style type="text/css">
	.st0{fill:#E1DEEE;}
	.st1{fill:#C0D6E7;}
	.st2{fill:#FFFFFF;}
	.st3{fill:#9087AB;stroke:#231F20;stroke-width:3;stroke-miterlimit:10;}
	.st4{fill:none;stroke:#231F20;stroke-width:3;stroke-miterlimit:10;}
	.st5{fill:#231F20;stroke:#231F20;stroke-width:3;stroke-miterlimit:10;}
	.st6{fill:#231F20;stroke:#231F20;stroke-width:0.5;stroke-miterlimit:10;}
	.st7{fill:#231F20;}
	.st8{fill:none;stroke:#231F20;stroke-width:3;stroke-linecap:round;stroke-miterlimit:10;}
	.st9{fill:#C0D6E7;stroke:#231F20;stroke-width:3;stroke-miterlimit:10;}
	.st10{fill:none;stroke:#FFFFFF;stroke-width:2;stroke-linecap:round;stroke-miterlimit:10;}
	.st11{fill:#FCFDFF;stroke:#231F20;stroke-width:3;stroke-miterlimit:10;}
	.st12{fill:#FFFFFF;stroke:#231F20;stroke-width:3;stroke-miterlimit:10;}
	.st13{fill:#FFFFFF;stroke:#231F20;stroke-width:2;stroke-miterlimit:10;}
	.st14{fill:none;stroke:#000000;stroke-width:3;stroke-miterlimit:10;}
	.st15{fill:none;stroke:#231F20;stroke-width:2;stroke-linecap:round;stroke-miterlimit:10;}
	.st16{fill:none;stroke:#231F20;stroke-width:4;stroke-linecap:round;stroke-miterlimit:10;}
	.st17{fill:#FFFFFF;stroke:#FFFFFF;stroke-miterlimit:10;}
	.st18{fill:#231F20;stroke:#231F20;stroke-miterlimit:10;}
	.st19{fill:#C0D6E8;}
	.st20{fill:none;}
	.st21{fill:#C0D6E7;stroke:#231F20;stroke-width:6;stroke-linecap:round;stroke-miterlimit:10;}
	.st22{fill:#FFFFFF;stroke:#231F20;stroke-width:5;stroke-miterlimit:10;}
	.st23{fill:#231F20;stroke:#FFFFFF;stroke-width:2;stroke-linecap:round;stroke-miterlimit:10;}
	.st24{fill:#FFFFFF;stroke:#FFFFFF;stroke-linecap:round;stroke-miterlimit:10;}
</style>
<g>
	<circle class="st0" cx="128.4" cy="130" r="76.4"/>
	<path class="st1" d="M170.6,220.5c19.1,0.8,18.6,0.9,20.5,0c11-5,13.8-21,14.7-29.4c-3.6-7-7.2-14.1-10.8-21.1
		c-3.6-4.5-7.3-9.1-10.9-13.6c-13.4,1.2-26.9,2.4-40.3,3.6c-2.9,4.3-5.7,8.5-8.6,12.8c-2.5,7.8-5.1,15.6-7.6,23.4
		c-0.2,4.6-0.5,9.3-0.7,13.9c2.6,1.8,6.7,4.2,12.1,6.3C142.5,217.7,148.1,219.5,170.6,220.5z"/>
	<path class="st2" d="M144.8,185.1c-1.6,4.1-2.1,7.4-2.7,11c-0.5,3-1,7.1-1.1,12.1c4.5,0.8,9,1.5,13.5,2.3c4.3-0.1,8.5-0.3,12.8-0.4
		c4-0.1,8-0.1,11.9-0.2c3.6-0.3,7.1-0.6,10.7-0.9c0-5.6-0.6-10.3-1.2-13.6c-0.9-4.7-1.7-8.8-4.3-13.4c-2.6-4.6-5.9-7.7-8.4-9.5
		c-3-1.3-7.2-2.4-12.1-2.1c-3.1,0.2-9.1,0.6-13.7,5.1C147.5,178.1,146.4,181.1,144.8,185.1z"/>
	<path class="st4" d="M126.6,195.1c1.7-5.6,4.1-12.1,7.5-19c3.6-7.3,7.4-13.4,10.9-18.4"/>
	<path class="st4" d="M202.5,184c-1.7-4.1-4.1-8.9-7.5-14c-3.6-5.4-7.4-9.9-10.9-13.6"/>
	<path class="st1" d="M88.9,211.9c18,9.4,33.9,17.7,41.7,11.5c8.6-6.8,2.8-27.2,1.5-31.7c-2-6-3.9-12-5.9-17.9
		c-4-6.4-7.9-12.9-11.9-19.3c-14.2,1.2-28.4,2.4-42.5,3.6c-2.9,5.2-5.8,10.4-8.7,15.6c-2.1,5.8-4.2,11.5-6.3,17.3
		C63.8,196.6,74.6,204.5,88.9,211.9z"/>
	<path class="st2" d="M75.3,183.8c-1.6,4.1-2.2,7.6-2.7,11c-0.6,3.5-0.8,6.4-1,8.5c4.5,2,8.9,3.9,13.4,5.9c4.3-0.1,8.5-0.3,12.8-0.4
		c4-0.1,8-0.1,11.9-0.2c3.6-0.3,7.1-0.6,10.7-0.9c0-5.6-0.6-10.3-1.2-13.6c-0.9-4.7-1.7-8.8-4.3-13.4c-2.6-4.6-5.9-7.7-8.4-9.5
		c-3-1.3-7.2-2.4-12.1-2.1c-3.1,0.2-9.1,0.6-13.7,5.1C77.9,176.8,76.8,179.7,75.3,183.8z"/>
	<path class="st3" d="M141.7,160.7c1.1,2.5,3,5.9,5.9,9.4c1.6,1.9,5.2,6.1,11.1,9.2c4.9,2.6,8.6,4.6,12.9,3.7
		c9.1-1.8,12.8-15.1,13.8-18.4c1.4-5,1.5-9.4,1.4-12.2l-44.3,4C142.2,157.8,142,159.3,141.7,160.7z"/>
	<path class="st3" d="M114.2,154.5c-0.3,2.8-1.3,8.2-5.1,13.5c-3.8,5.3-8.4,7.8-11.1,9.2c-4.9,2.6-8.6,4.6-12.9,3.7
		c-9.1-1.8-12.8-15.1-13.8-18.4c-1.4-5-1.5-9.4-1.4-12.2C84.7,151.7,99.5,153.1,114.2,154.5z"/>
	<g>
		<line class="st10" x1="83.2" y1="166.6" x2="86" y2="167"/>
		<line class="st10" x1="92.3" y1="167.8" x2="95.2" y2="168.2"/>
		<line class="st10" x1="84.6" y1="166.8" x2="84.9" y2="171.9"/>
		<line class="st10" x1="93.7" y1="168" x2="91.9" y2="172.8"/>
		<line class="st10" x1="88.9" y1="167.6" x2="85.1" y2="172"/>
		<line class="st10" x1="89.2" y1="167.7" x2="91.7" y2="172.9"/>
	</g>
	<path class="st3" d="M73.9,155.2c-2.7,3.8-5.6,8.2-8.3,13.4c-2.2,4.3-4,8.3-5.4,12"/>
	<path class="st14" d="M110.5,150.3c3.9,4.2,8.6,10,12.7,17.7c1,1.8,4.6,8.6,7.4,18.5c2,6.9,4.1,17.3,3.8,30.2"/>
	<path class="st1" d="M129.9,108.1c0.7-6.1-1-6.5,0-13.6c0.7-4.8,1.8-13.3,6.3-14.6c4.2-1.2,9.3,4.4,11.4,6.8
		c2.9,3.2,4.5,6.5,5.3,8.7c4.3-0.4,7.9-0.2,10.4,0c4.5,0.4,9.3,0.9,14.6,3.6c3.1,1.6,5.3,3.4,6.7,4.7c2.1-3.1,4.4-5.2,6-6.5
		c2.2-1.7,4-3.3,7-4c1.7-0.4,5.4-1.3,8,0.7c2.2,1.7,2.4,4.6,2.6,7c0.1,1.6,0,4-1.5,9.3c-1.5,5-2.8,6.2-3.6,8.6
		c-0.2,0.5-0.4,1.2-0.6,2.1c-1.3,6.1,0.9,9.4,1.1,14.2c0.2,5.8-2.5,10.3-4.1,12.9c-2.9,4.8-6.5,7.5-8.5,8.9c-11,8-23.7,7.8-29,7.7
		c-5.3-0.2-13.2-0.5-21.7-5.3c-3.4-1.9-11-6.2-15-15.3c-2.6-6-2.6-11.5-2.4-14.1C123.6,120.2,128.8,118.7,129.9,108.1z"/>
	<path class="st6" d="M197,117.9c1-2,1.7-3.8,2.2-5.1c1.2-3.3,1.4-4.5,1.5-5c0.2-1.8,0.5-4.3-0.8-5.3c-1.7-1.3-5.1,0.5-6.9,2
		c-2.5,2.1-3.3,4.9-3.6,6.1C191.9,113,194.4,115.4,197,117.9z"/>
	<path class="st6" d="M137,103.7c-0.6-1.7-1.2-4.3-1.1-7.5c0.1-2.5,0.2-6.9,2.5-7.7c2.4-0.9,5.6,2.5,6,3c2.4,2.6,2.8,5.6,2.9,6.8
		C143.9,100,140.4,101.8,137,103.7z"/>
	<path class="st2" d="M168.2,118.1c-0.7,0.8-1,2.1-0.4,3c0.8,1.3,3.3,1.1,4.7,0.5c1-0.4,2.5-1.5,2.3-2.4
		C174.5,117.6,169.9,116.2,168.2,118.1z"/>
	<path class="st2" d="M152.7,119c1-0.2,2-1.2,2.1-2.3c0.1-1.6-2-2.8-3.6-3.1c-1-0.2-2.9-0.2-3.3,0.7
		C147.3,115.8,150.2,119.6,152.7,119z"/>
	<path class="st4" d="M129.9,108.1c0.7-6.1-1-6.5,0-13.6c0.7-4.8,1.8-13.3,6.3-14.6c4.2-1.2,9.3,4.4,11.4,6.8
		c2.9,3.2,4.5,6.5,5.3,8.7c4.3-0.4,7.9-0.2,10.4,0c4.5,0.4,9.3,0.9,14.6,3.6c3.1,1.6,5.3,3.4,6.7,4.7c2.1-3.1,4.4-5.2,6-6.5
		c2.2-1.7,4-3.3,7-4c1.7-0.4,5.4-1.3,8,0.7c2.2,1.7,2.4,4.6,2.6,7c0.1,1.6,0,4-1.5,9.3c-1.5,5-2.8,6.2-3.6,8.6
		c-0.2,0.5-0.4,1.2-0.6,2.1c-1.3,6.1,0.9,9.4,1.1,14.2c0.2,5.8-2.5,10.3-4.1,12.9c-2.9,4.8-6.5,7.5-8.5,8.9c-11,8-23.7,7.8-29,7.7
		c-5.3-0.2-13.2-0.5-21.7-5.3c-3.4-1.9-11-6.2-15-15.3c-2.6-6-2.6-11.5-2.4-14.1C123.6,120.2,128.8,118.7,129.9,108.1z"/>
	<path class="st2" d="M83.8,133.1c-3.3,0.1-4.9,0.1-6.1,0.5c-0.7,0.2-5.7,1.8-7.3,5.6c-1.9,4.7,2.9,10.8,4.2,12.4
		c5.1,6.2,12,7.5,13.6,7.8c3.9,0.7,6.9,0,11-0.8c4.2-0.9,8.8-1.8,12.9-5.5c2.5-2.2,3.9-4.6,4.7-6.1c0.8-3.2,1-5.9,1-7.8
		c0-3.9-0.7-5.4-0.9-5.9c-0.3-0.6-1.3-2.4-3.5-3.6c-2-1.1-4-1.1-5.8-1c-2.4,0.1-4.2,0.8-5.3,1.2c-2.2,0.8-5,1.8-7.1,4.4
		c-0.4,0.4-0.6,0.8-0.8,1.1c-0.2-0.2-0.6-0.4-1.1-0.7C91.6,133.7,89.3,133,83.8,133.1z"/>
	<path class="st1" d="M122.1,104.5c-0.7-6.1,1-6.5,0-13.6c-0.7-4.8-1.8-13.3-6.3-14.6c-4.2-1.2-9.3,4.4-11.4,6.8
		c-2.9,3.2-4.5,6.5-5.3,8.7c-4.3-0.4-7.9-0.2-10.4,0c-4.5,0.4-9.3,0.9-14.6,3.6c-3.1,1.6-5.3,3.4-6.7,4.7c-2.1-3.1-4.4-5.2-6-6.5
		c-2.2-1.7-4-3.3-7-4c-1.7-0.4-5.4-1.3-8,0.7c-2.2,1.7-2.4,4.6-2.6,7c-0.1,1.6,0,4,1.5,9.3c1.5,5,2.8,6.2,3.6,8.6
		c0.2,0.5,0.4,1.2,0.6,2.1c1.3,6.1-0.9,9.4-1.1,14.2c-0.2,5.8,2.5,10.3,4.1,12.9c2.9,4.8,6.5,7.5,8.5,8.9c11,8,23.7,7.8,29,7.7
		c5.3-0.2,13.2-0.5,21.7-5.3c3.4-1.9,11-6.2,15-15.3c2.6-6,2.6-11.5,2.4-14.1C128.5,116.6,123.2,115.2,122.1,104.5z"/>
	<path class="st4" d="M122.1,104.5c-0.7-6.1,1-6.5,0-13.6c-0.7-4.8-1.8-13.3-6.3-14.6c-4.2-1.2-9.3,4.4-11.4,6.8
		c-2.9,3.2-4.5,6.5-5.3,8.7c-4.3-0.4-7.9-0.2-10.4,0c-4.5,0.4-9.3,0.9-14.6,3.6c-3.1,1.6-5.3,3.4-6.7,4.7c-2.1-3.1-4.4-5.2-6-6.5
		c-2.2-1.7-4-3.3-7-4c-1.7-0.4-5.4-1.3-8,0.7c-2.2,1.7-2.4,4.6-2.6,7c-0.1,1.6,0,4,1.5,9.3c1.5,5,2.8,6.2,3.6,8.6
		c0.2,0.5,0.4,1.2,0.6,2.1c1.3,6.1-0.9,9.4-1.1,14.2c-0.2,5.8,2.5,10.3,4.1,12.9c2.9,4.8,6.5,7.5,8.5,8.9c11,8,23.7,7.8,29,7.7
		c5.3-0.2,13.2-0.5,21.7-5.3c3.4-1.9,11-6.2,15-15.3c2.6-6,2.6-11.5,2.4-14.1C128.5,116.6,123.2,115.2,122.1,104.5z"/>
	<path class="st6" d="M55.1,114.4c-1-2-1.7-3.8-2.2-5.1c-1.2-3.3-1.4-4.5-1.5-5c-0.2-1.8-0.5-4.3,0.8-5.3c1.7-1.3,5.1,0.5,6.9,2
		c2.5,2.1,3.3,4.9,3.6,6.1C60.2,109.5,57.6,111.9,55.1,114.4z"/>
	<path class="st6" d="M115.1,100.1c0.6-1.7,1.2-4.3,1.1-7.5c-0.1-2.5-0.2-6.9-2.5-7.7c-2.4-0.9-5.6,2.5-6,3
		c-2.4,2.6-2.8,5.6-2.9,6.8C108.2,96.5,111.6,98.3,115.1,100.1z"/>
	<path class="st7" d="M94.4,134.7c-0.4,0.1-0.5-0.2-1.3-0.4c-0.5-0.1-0.9-0.3-1.4-0.2c-0.1,0-1.3,0.2-1.7,1.2
		c-0.3,0.6,0,1.3,0.1,1.6c0.3,0.7,0.7,1.1,1.2,1.5c0.6,0.5,1.2,0.8,1.3,0.9c1,0.5,1.9,0.6,2.2,0.6c0.4,0,0.6,0,0.9,0
		c0.8-0.2,1.3-0.7,1.8-1.4c0.3-0.3,0.8-1,1.1-1.8c0.2-0.5,0.4-0.9,0.3-1.4c0-0.3,0-0.9-0.4-1.4c-0.3-0.4-0.6-0.5-0.8-0.5
		c-0.1,0-0.6-0.2-1.2-0.1c-0.4,0.1-0.7,0.3-1.1,0.6C94.8,134.3,94.8,134.6,94.4,134.7z"/>
	<path class="st8" d="M70.8,129.9c0.6-1.2,2.1-2,3.9-2.2c2.1-0.2,4.3,0.6,5.2,2"/>
	<path class="st8" d="M100.1,125.9c0-1.3,0.9-2.8,2.4-3.8c1.8-1.2,4.1-1.5,5.5-0.6"/>
	<path d="M96.7,144.6c2.8-3.2,5.8-4.3,7.2-4.7c1.5-0.4,3.2-0.9,4.5,0c2,1.4,1.3,5.3,1.2,5.8c-0.8,4.3-4.5,6.7-5.7,7.4
		c-3.6,2.3-7.2,2.4-8.5,2.3c-1.7-0.1-6-0.2-8.5-3.4c-0.3-0.3-2.3-3-1.3-5.3c0.6-1.3,1.9-1.9,2.7-2.3C91.8,142.8,95.4,144,96.7,144.6
		z"/>
	<line class="st5" x1="95.7" y1="139.3" x2="97" y2="147.4"/>
	<path class="st2" d="M80.5,115.4c0.7,0.8,1,2.1,0.4,3c-0.8,1.3-3.3,1.1-4.7,0.5c-1-0.4-2.5-1.5-2.3-2.4
		C74.2,115,78.7,113.5,80.5,115.4z"/>
	<path class="st2" d="M98.5,116.4c-1-0.2-2-1.2-2.1-2.3c-0.1-1.6,2-2.8,3.6-3.1c1-0.2,2.9-0.2,3.3,0.7
		C103.9,113.1,101,116.9,98.5,116.4z"/>
	<path class="st15" d="M146.5,125.1c-0.4-0.2-1.5-1-1.6-2.3c0-0.4,0.1-0.7,0.2-1"/>
	<path class="st15" d="M167.1,128.6c-0.4-0.2-1.5-1-1.6-2.3c0-0.4,0.1-0.7,0.2-1"/>
	<g>
		<line class="st10" x1="173.6" y1="168.7" x2="170.7" y2="169.1"/>
		<line class="st10" x1="164.4" y1="170" x2="161.6" y2="170.4"/>
		<line class="st10" x1="172.1" y1="168.9" x2="171.8" y2="174"/>
		<line class="st10" x1="163" y1="170.2" x2="164.8" y2="175"/>
		<line class="st10" x1="167.8" y1="169.8" x2="171.6" y2="174.1"/>
		<line class="st10" x1="167.6" y1="169.8" x2="165" y2="175"/>
	</g>
	<path class="st2" d="M168.2,136.6c3.3,0.1,4.9,0.1,6.1,0.5c0.7,0.2,5.7,1.8,7.3,5.6c1.9,4.7-2.9,10.8-4.2,12.4
		c-5.1,6.2-12,7.5-13.6,7.8c-3.9,0.7-6.9,0-11-0.8c-4.2-0.9-8.8-1.8-12.9-5.5c-2.5-2.2-3.9-4.6-4.7-6.1c-0.8-3.2-1-5.9-1-7.8
		c0-3.9,0.7-5.4,0.9-5.9c0.3-0.6,1.3-2.4,3.5-3.6c2-1.1,4-1.1,5.8-1c2.4,0.1,4.2,0.8,5.3,1.2c2.2,0.8,5,1.8,7.1,4.4
		c0.4,0.4,0.6,0.8,0.8,1.1c0.2-0.2,0.6-0.4,1.1-0.7C160.4,137.2,162.7,136.5,168.2,136.6z"/>
	<path class="st7" d="M157.6,138.2c0.4,0.1,0.5-0.2,1.3-0.4c0.5-0.1,0.9-0.3,1.4-0.2c0.1,0,1.3,0.2,1.7,1.2c0.3,0.6,0,1.3-0.1,1.6
		c-0.3,0.7-0.7,1.1-1.2,1.5c-0.6,0.5-1.2,0.8-1.3,0.9c-1,0.5-1.9,0.6-2.2,0.6c-0.4,0-0.6,0-0.9,0c-0.8-0.2-1.3-0.7-1.8-1.4
		c-0.3-0.3-0.8-1-1.1-1.8c-0.2-0.5-0.4-0.9-0.3-1.4c0-0.3,0-0.9,0.4-1.4c0.3-0.4,0.6-0.5,0.8-0.5c0.1,0,0.6-0.2,1.2-0.1
		c0.4,0.1,0.7,0.3,1.1,0.6C157.2,137.8,157.2,138.1,157.6,138.2z"/>
	<path class="st16" d="M142.1,144.5c0.3,0.6,1.1,2.2,2.9,3.3c2,1.2,3.9,1.2,4.6,1.1c0.6,0,2.7-0.2,4.3-1.8c2.1-1.9,2.2-4.9,2.6-4.8
		c0.4,0.1-0.7,3.4,0.9,6.6c0.6,1.1,1.2,1.8,1.5,2.1c1.6,1.5,3.5,1.8,4.1,1.9c2.9,0.4,5-1,5.6-1.4"/>
	<g>
		<path class="st12" d="M93.4,66.6H64.5c-0.6,0-1-0.4-1-1V51c0-0.6,0.4-1,1-1h28.9c0.6,0,1,0.4,1,1v14.5
			C94.4,66.1,94,66.6,93.4,66.6z"/>
		<path class="st12" d="M75.2,66.8c2.8,2.7,5.6,5.5,8.4,8.2c0-2.7,0-5.5,0-8.2H75.2z"/>
		<polyline class="st2" points="82.4,72.1 74.9,64.7 82.4,64.7 		"/>
	</g>
	<g>
		<path class="st12" d="M184.5,82.6c-2.8,2.7-5.6,5.5-8.4,8.2c0-2.7,0-5.5,0-8.2H184.5z"/>
		<g>
			<path class="st12" d="M166.3,82.4h28.9c0.6,0,1-0.4,1-1V66.8c0-0.6-0.4-1-1-1h-28.9c-0.6,0-1,0.4-1,1v14.5
				C165.3,81.9,165.7,82.4,166.3,82.4z"/>
			<g>
				<polyline class="st2" points="177.3,87.9 184.8,80.5 177.3,80.5 				"/>
			</g>
		</g>
	</g>
	<path class="st7" d="M166.7,131.2c-0.7-1.8,0.7-4.2,2.8-4.7c2.2-0.5,4.5,1.1,4.7,3.1c0.1,1.4-0.8,2.6-1.8,3.1
		C170.5,133.8,167.5,133.2,166.7,131.2z"/>
	<path class="st7" d="M145.2,124.7c0.9-1.7,3.6-2.3,5.4-1.1c1.8,1.3,2.2,4.1,0.9,5.5c-0.9,1-2.5,1.1-3.6,0.8
		C145.8,129.2,144.2,126.6,145.2,124.7z"/>
	<path class="st2" d="M56.3,155.3c2.3,6.6,8.1,20,21.5,31.8c15.6,13.8,32.4,17.3,38.9,18.3c6.5,1,24.2,2.9,43.8-6.1
		c23.6-10.9,34.1-30.6,37-36.5l21.2,24.9l-10.3,43H33.7L56.3,155.3z"/>
</g>
</svg>
