<?xml version="1.0" encoding="utf-8"?>
<!-- Generator: Adobe Illustrator 24.1.2, SVG Export Plug-In . SVG Version: 6.00 Build 0)  -->
<svg version="1.1" id="Layer_1" xmlns="http://www.w3.org/2000/svg" xmlns:xlink="http://www.w3.org/1999/xlink" x="0px" y="0px"
	 viewBox="0 0 250 250" style="enable-background:new 0 0 250 250;" xml:space="preserve">
<style type="text/css">
	.st0{fill:#E1DEEE;}
	.st1{fill:#C0D6E7;}
	.st2{fill:#FFFFFF;}
	.st3{fill:#9087AB;stroke:#231F20;stroke-width:3;stroke-miterlimit:10;}
	.st4{fill:none;stroke:#231F20;stroke-width:3;stroke-miterlimit:10;}
	.st5{fill:#231F20;stroke:#231F20;stroke-width:3;stroke-miterlimit:10;}
	.st6{fill:#231F20;stroke:#231F20;stroke-width:0.5;stroke-miterlimit:10;}
	.st7{fill:#231F20;}
	.st8{fill:none;stroke:#231F20;stroke-width:3;stroke-linecap:round;stroke-miterlimit:10;}
	.st9{fill:#C0D6E7;stroke:#231F20;stroke-width:3;stroke-miterlimit:10;}
	.st10{fill:none;stroke:#FFFFFF;stroke-width:2;stroke-linecap:round;stroke-miterlimit:10;}
	.st11{fill:#FCFDFF;stroke:#231F20;stroke-width:3;stroke-miterlimit:10;}
	.st12{fill:#FFFFFF;stroke:#231F20;stroke-width:3;stroke-miterlimit:10;}
	.st13{fill:#FFFFFF;stroke:#231F20;stroke-width:2;stroke-miterlimit:10;}
	.st14{fill:none;stroke:#000000;stroke-width:3;stroke-miterlimit:10;}
	.st15{fill:none;stroke:#231F20;stroke-width:2;stroke-linecap:round;stroke-miterlimit:10;}
	.st16{fill:none;stroke:#231F20;stroke-width:4;stroke-linecap:round;stroke-miterlimit:10;}
	.st17{fill:#FFFFFF;stroke:#FFFFFF;stroke-miterlimit:10;}
	.st18{fill:#231F20;stroke:#231F20;stroke-miterlimit:10;}
	.st19{fill:#C0D6E8;}
	.st20{fill:none;}
	.st21{fill:#C0D6E7;stroke:#231F20;stroke-width:6;stroke-linecap:round;stroke-miterlimit:10;}
	.st22{fill:#FFFFFF;stroke:#231F20;stroke-width:5;stroke-miterlimit:10;}
	.st23{fill:#231F20;stroke:#FFFFFF;stroke-width:2;stroke-linecap:round;stroke-miterlimit:10;}
	.st24{fill:#FFFFFF;stroke:#FFFFFF;stroke-linecap:round;stroke-miterlimit:10;}
</style>
<g>
	<g>
		<circle class="st0" cx="128.3" cy="130.3" r="76.4"/>
		<path class="st9" d="M89.5,152.9c-3.4-0.1-6.4,3.2-7.7,5.9c-3.1,6.6,2,14.5,5.4,19.9c3.6,5.7,7.9,9.6,14.7,15.9
			c2.8,2.6,5.2,4.6,6.9,6c1.7-5.8,3.4-11.7,5.1-17.5c-2.4-2.3-6-6-9.7-11C96.1,160.9,94.5,153,89.5,152.9z"/>
		<path class="st1" d="M147.9,218.8c19.1,0.8,18.5,0.8,20.5,0c10.7-4,15.6-15.9,17.6-22.1c-2.2-6-4.3-11.9-6.5-17.9
			c-3.8-6.1-7.6-12.2-11.3-18.3c-15.7-0.8-31.3-1.5-47-2.3c-2.7,5.1-5.4,10.1-8.1,15.2c-2.7,7-5.4,14-8.1,21
			c-0.2,4.6-0.5,9.3-0.7,13.9c2.6,1.8,6.7,4.2,12.1,6.3C119.9,216.1,125.5,217.8,147.9,218.8z"/>
		<path class="st2" d="M124.7,191.4c-1.6,4.1-2.2,7.6-2.7,11c-0.6,3.5-0.8,6.4-1,8.5c4.5,2,8.9,3.9,13.4,5.9
			c4.3-0.1,8.5-0.3,12.8-0.4c4-0.1,8-0.1,11.9-0.2c3.6-0.3,7.1-0.6,10.7-0.9c0-5.6-0.6-10.3-1.2-13.6c-0.9-4.7-1.7-8.8-4.3-13.4
			c-2.6-4.6-5.9-7.7-8.4-9.5c-3-1.3-7.2-2.4-12.1-2.1c-3.1,0.2-9.1,0.6-13.7,5.1C127.4,184.5,126.2,187.4,124.7,191.4z"/>
		<path class="st3" d="M124.1,166.2c1.1,2.5,3,5.9,5.9,9.4c1.6,1.9,5.2,6.1,11.1,9.2c4.9,2.6,8.6,4.6,12.9,3.7
			c9.1-1.8,12.8-15.1,13.8-18.4c1.4-5,1.5-9.4,1.4-12.2l-44.3,4C124.6,163.4,124.4,164.8,124.1,166.2z"/>
		<g>
			<line class="st10" x1="156" y1="174.3" x2="153.1" y2="174.7"/>
			<line class="st10" x1="146.8" y1="175.5" x2="143.9" y2="175.9"/>
			<line class="st10" x1="154.5" y1="174.5" x2="154.2" y2="179.6"/>
			<line class="st10" x1="145.4" y1="175.7" x2="147.2" y2="180.5"/>
			<line class="st10" x1="150.2" y1="175.3" x2="154" y2="179.7"/>
			<line class="st10" x1="149.9" y1="175.4" x2="147.4" y2="180.6"/>
		</g>
		<path class="st4" d="M161.5,158.7c5.1,3.7,13.4,10.9,19.3,22.6c2.8,5.7,4.4,11.1,5.2,15.4"/>
		<path class="st4" d="M122,158c-4,5.9-8.7,13.9-12.4,23.9c-3,8-4.8,15.4-5.8,21.5"/>
		<path class="st19" d="M178.9,88.1c0.6,0.3,2.2,1.2,4.2,7.8c0.9,2.8,1.9,6.8,2.5,11.7c0.8,6.6,0.8,6.1,1.4,8.9
			c0.9,3.8,1.6,5.2,2.5,9.6c0.4,2,0.7,3.6,0.9,5.7c0.3,3,0.6,7.2-0.9,12c-1.3,4.1-3.4,6.7-5.3,9.2c-2.7,3.4-5.3,5.6-6.7,6.7
			c-2.6,2-5,3.3-6.9,4.2c-2.3,1.2-5.5,2.5-9.4,3.7c-1.8,0.5-7.7,2.1-15.6,2.1c-3.6,0-9.8,0-17.4-2.5c-5.6-1.8-9.5-4.2-12.4-6
			c-3.4-2.1-6.6-4.1-9.9-7.8c-1.8-2-4.2-4.6-5.8-8.9c-1.6-4.2-1.6-7.7-1.6-8.6c0.1-3.5,1-6.1,2.1-9.4c2.3-6.4,3.8-6.4,4.8-10.8
			c0.6-2.7,0.1-2.6,0.5-10.1c0.4-8.3,1.2-11.1,1.5-12.2c1.1-3.5,2.2-7.1,5.3-8.3c1.8-0.7,3.7-0.3,5,0c2.6,0.6,4.3,1.9,5.3,2.7
			c1.9,1.5,2.9,3,3.9,4.4c0.9,1.4,2.1,3.5,3.1,6.2c2.5-0.2,5.6-0.4,9.3-0.3c1,0,5.1,0.1,10.6,1c3.5,0.5,7.9,1.4,12.9,3
			c0.4-1.8,1.3-4.7,3.3-7.6c0.8-1.2,1.7-2.5,3.4-3.8C170.3,90.1,175.2,86.4,178.9,88.1z"/>
		<path class="st2" d="M155.1,139c4-0.2,6-0.3,7.5,0c0.9,0.2,7.1,1.6,9.4,6.1c3.2,6.2-3.6,15.1-3.9,15.5c-4.8,6.1-11.8,7.6-15.8,8.5
			c-5.4,1.2-9.8,0.8-13,0.4c-5.6-0.6-10.1-1.3-14.5-4.4c-4-2.8-6.6-6.7-6.6-6.7c-0.1-0.1-0.2-0.2-0.2-0.3c-2.1-3.3-3.1-6.4-3.5-8.5
			c-0.2-1-0.8-4,0.6-7.2c0.3-0.8,1.3-3.1,3.8-4.8c2.4-1.6,4.7-1.7,7-1.8c3-0.1,5.2,0.5,6.5,0.9c2.8,0.8,6.2,1.7,9,4.6
			c0.5,0.5,0.8,0.9,1,1.2c0.3-0.2,0.7-0.6,1.3-0.9C145.7,140.5,148.4,139.4,155.1,139z"/>
		<path class="st2" d="M151.7,122.4c-0.5,1.2-0.1,2.9,0.9,3.6c1.6,1.2,4.2-0.2,5.6-1.6c0.9-0.9,2.2-2.9,1.5-3.9
			C158.7,119,152.8,119.5,151.7,122.4z"/>
		<path class="st6" d="M179.3,111c0-1.1,0-2.8-0.4-4.8c-0.3-1.5-1.5-6.8-4.1-7.1c-0.4,0-1.2,0-2.2,0.9c-0.6,0.6-1.4,1.5-2,2.7
			c-0.7,1.5-0.7,2.9-0.6,3.6C173.1,107.9,176.2,109.5,179.3,111z"/>
		<path class="st18" d="M123.1,101.5c-2.8,1.6-5.5,3.2-8.3,4.7c-0.2-0.5-0.4-1.2-0.6-2.1c-0.4-1.9-1.1-5.2,0.6-7.9
			c0.3-0.6,0.9-1.4,1.8-1.7c1.1-0.3,2.1,0.2,2.6,0.4c2,1,2.8,3.1,3.3,4.1C122.9,100,123.1,100.9,123.1,101.5z"/>
		<path class="st7" d="M157.7,134.6c0.7,1.9,3.5,2.8,5.5,1.8c2.1-1.1,2.7-4,1.5-5.6c-0.8-1.1-2.4-1.4-3.6-1.2
			C158.9,129.9,156.9,132.5,157.7,134.6z"/>
		<path class="st7" d="M126.1,129.3c0.7-1.9,3.5-2.8,5.5-1.8c2.1,1.1,2.7,4,1.5,5.6c-0.8,1.1-2.4,1.4-3.6,1.2
			C127.3,134,125.3,131.4,126.1,129.3z"/>
		<path class="st7" d="M142.6,142.2c0.3,0,0.4-0.2,1.2-0.4c0.5-0.2,0.8-0.3,1.3-0.3c0.1,0,1.2,0.1,1.6,1c0.3,0.6,0.1,1.2,0,1.5
			c-0.2,0.6-0.6,1-1,1.4c-0.5,0.5-1,0.8-1.1,0.9c-0.9,0.5-1.7,0.7-1.9,0.7c-0.4,0-0.6,0.1-0.9,0c-0.7-0.1-1.2-0.6-1.8-1.2
			c-0.3-0.3-0.8-0.8-1.1-1.6c-0.2-0.4-0.4-0.8-0.4-1.3c0-0.3,0-0.8,0.3-1.3c0.2-0.3,0.6-0.5,0.7-0.5c0.1-0.1,0.5-0.2,1.1-0.2
			c0.4,0.1,0.7,0.2,1,0.5C142.2,141.9,142.2,142.2,142.6,142.2z"/>
		<path class="st16" d="M150.7,152.6c-0.4,0.3-1.2,0.7-2.2,0.8c-1.4,0.1-2.4-0.4-2.8-0.6c-1.5-0.7-2.2-1.9-2.6-2.6
			c-0.9-1.6-1-3.1-1-3.9c0,0.4,0,2.9-1.8,4.5c-1,0.9-2.1,1.2-2.3,1.2c-0.4,0.1-1.3,0.3-2.3,0c-1.1-0.3-1.7-0.9-2-1.2"/>
		<path class="st2" d="M137.9,121.3c0.3,1.3-0.4,2.9-1.5,3.4c-1.7,0.9-4.1-0.9-5.2-2.5c-0.7-1.1-1.7-3.2-0.9-4.1
			C131.5,116.8,137.3,118.2,137.9,121.3z"/>
		<path class="st20" d="M178.9,88.1c0.6,0.3,2.2,1.2,4.2,7.8c0.9,2.8,1.9,6.8,2.5,11.7c0.8,6.6,0.8,6.1,1.4,8.9
			c0.9,3.8,1.6,5.2,2.5,9.6c0.4,2,0.7,3.6,0.9,5.7c0.3,3,0.6,7.2-0.9,12c-1.3,4.1-3.4,6.7-5.3,9.2c-2.7,3.4-5.3,5.6-6.7,6.7
			c-2.6,2-5,3.3-6.9,4.2c-2.3,1.2-5.5,2.5-9.4,3.7c-1.8,0.5-7.7,2.1-15.6,2.1c-3.6,0-9.8,0-17.4-2.5c-5.6-1.8-9.5-4.2-12.4-6
			c-3.4-2.1-6.6-4.1-9.9-7.8c-1.8-2-4.2-4.6-5.8-8.9c-1.6-4.2-1.6-7.7-1.6-8.6c0.1-3.5,1-6.1,2.1-9.4c2.3-6.4,3.8-6.4,4.8-10.8
			c0.6-2.7,0.1-2.6,0.5-10.1c0.4-8.3,1.2-11.1,1.5-12.2c1.1-3.5,2.2-7.1,5.3-8.3c1.8-0.7,3.7-0.3,5,0c2.6,0.6,4.3,1.9,5.3,2.7
			c1.9,1.5,2.9,3,3.9,4.4c0.9,1.4,2.1,3.5,3.1,6.2c2.5-0.2,5.6-0.4,9.3-0.3c1,0,5.1,0.1,10.6,1c3.5,0.5,7.9,1.4,12.9,3
			c0.4-1.8,1.3-4.7,3.3-7.6c0.8-1.2,1.7-2.5,3.4-3.8C170.3,90.1,175.2,86.4,178.9,88.1z"/>
		<path class="st4" d="M178.9,88.1c0.6,0.3,2.2,1.2,4.2,7.8c0.9,2.8,1.9,6.8,2.5,11.7c0.8,6.6,0.8,6.1,1.4,8.9
			c0.9,3.8,1.6,5.2,2.5,9.6c0.4,2,0.7,3.6,0.9,5.7c0.3,3,0.6,7.2-0.9,12c-1.3,4.1-3.4,6.7-5.3,9.2c-2.7,3.4-5.3,5.6-6.7,6.7
			c-2.6,2-5,3.3-6.9,4.2c-2.3,1.2-5.5,2.5-9.4,3.7c-1.8,0.5-7.7,2.1-15.6,2.1c-3.6,0-9.8,0-17.4-2.5c-5.6-1.8-9.5-4.2-12.4-6
			c-3.4-2.1-6.6-4.1-9.9-7.8c-1.8-2-4.2-4.6-5.8-8.9c-1.6-4.2-1.6-7.7-1.6-8.6c0.1-3.5,1-6.1,2.1-9.4c2.3-6.4,3.8-6.4,4.8-10.8
			c0.6-2.7,0.1-2.6,0.5-10.1c0.4-8.3,1.2-11.1,1.5-12.2c1.1-3.5,2.2-7.1,5.3-8.3c1.8-0.7,3.7-0.3,5,0c2.6,0.6,4.3,1.9,5.3,2.7
			c1.9,1.5,2.9,3,3.9,4.4c0.9,1.4,2.1,3.5,3.1,6.2c2.5-0.2,5.6-0.4,9.3-0.3c1,0,5.1,0.1,10.6,1c3.5,0.5,7.9,1.4,12.9,3
			c0.4-1.8,1.3-4.7,3.3-7.6c0.8-1.2,1.7-2.5,3.4-3.8C170.3,90.1,175.2,86.4,178.9,88.1z"/>
		<line class="st21" x1="71.8" y1="166.6" x2="89.5" y2="147.4"/>
		<circle class="st22" cx="95.3" cy="138.3" r="10.8"/>
		<path class="st2" d="M56.1,155.7c2.3,6.6,8.1,20,21.5,31.8c15.6,13.8,32.4,17.3,38.9,18.3c6.5,1,24.2,2.9,43.8-6.1
			c23.6-10.9,34.1-30.6,37-36.5l21.2,24.9l-10.3,43H33.5L56.1,155.7z"/>
		<g>
			<path class="st18" d="M131.9,53.3c-1.5,1.8-4.1,4.8-3.4,8.6c0.7,3.8,4.4,6.5,7.8,7c4.3,0.6,5.6-2.9,9.4-2.1
				c4.1,0.8,4.1,5.3,8.5,6.3c3.1,0.7,6.9-0.7,8.8-3.4c2.4-3.6,0.5-7.9-0.6-10.7c-1-2.3-2.6-6.3-6-7.2c-3.4-0.9-4.9,2.2-8.6,1.3
				c-3.6-0.8-3.6-4-7-4.6C136.7,47.8,132.9,52.2,131.9,53.3z"/>
			<line class="st23" x1="136.2" y1="56.6" x2="139.6" y2="59.6"/>
			<line class="st23" x1="139.4" y1="56.3" x2="136.4" y2="59.8"/>
			<circle class="st2" cx="154.1" cy="62.5" r="1.1"/>
			<circle class="st2" cx="158.2" cy="61.6" r="1.1"/>
			<circle class="st2" cx="155.7" cy="60" r="1.1"/>
			<circle class="st2" cx="156.6" cy="64.1" r="1.1"/>
		</g>
		<g>
			<path class="st18" d="M87.8,56.9L79,65.8c-0.6,0.6-0.2,1.7,0.7,1.7h17.5c0.9,0,1.3-1.1,0.7-1.7l-8.8-8.9
				C88.8,56.5,88.2,56.5,87.8,56.9z"/>
			<path class="st18" d="M94.4,66.1H82.6c-0.5,0-0.8,0.4-0.8,0.8v9.8c0,0.5,0.4,0.8,0.8,0.8h2.7v-6.7h6.3v6.7h2.7
				c0.5,0,0.8-0.4,0.8-0.8v-9.8C95.2,66.4,94.9,66.1,94.4,66.1z"/>
		</g>
		<g>
			<path class="st7" d="M51.1,117.4c-0.7-0.8-0.7-1.8-0.7-3c0-0.3,0-3,0.6-3.1c0.6-0.1,0.9,1.9,2.7,4.4c1.7,2.3,3.4,3.1,3.2,3.6
				c-0.3,0.5-2.6-0.2-3.1-0.4C52.4,118.4,51.7,118.1,51.1,117.4z"/>
			<path class="st7" d="M72.6,102.6c-0.6-0.9-1.6-1.2-2.7-1.6c-0.5-0.2-2.3-0.7-2.6-0.2c-0.3,0.5,1.2,1.4,2.9,3.8
				c1.6,2.4,2,4.2,2.5,4.1c0.6-0.1,0.6-2.5,0.6-3.1C73.1,104.2,73.1,103.4,72.6,102.6z"/>
			<path class="st7" d="M52.3,108.6c-0.2-1.6,1-2.9,1.9-4c0.6-0.7,2.4-2.7,5.6-3.5c1.5-0.3,3.2-0.7,4.7,0.1c0.3,0.1,0.5,0.3,3,3.4
				c1.3,1.6,1.7,2.2,1.9,2.5c0,0.1,0.1,0.1,0.1,0.2c0.7,1.1,1.2,2.4,1.3,2.9c0.4,1.7-1.3,3.6-2.5,4.8c-1.7,1.8-3.5,2.6-4.2,2.9
				c-1.3,0.5-3.8,1.5-5.2,0.5c-0.1-0.1-0.5-0.6-1.4-1.5c-0.4-0.5-0.8-1-1.4-1.6c-0.2-0.3-0.8-1-1.5-2.1c-0.5-0.7-0.9-1.4-1.4-2.3
				C52.7,109.9,52.3,109.2,52.3,108.6z"/>
			<g>
				<path class="st24" d="M57.3,112.6c1.1-1,2.4-2,3.7-3c1.7-1.3,3.4-2.3,4.9-3.2"/>
				<line class="st24" x1="56.5" y1="111.8" x2="57.8" y2="113.6"/>
				<line class="st24" x1="65.3" y1="105.5" x2="66.6" y2="107.3"/>
				<line class="st24" x1="60.7" y1="108.4" x2="62" y2="110.2"/>
				<line class="st24" x1="58.6" y1="110" x2="59.9" y2="111.8"/>
				<line class="st24" x1="62.9" y1="106.9" x2="64.2" y2="108.7"/>
			</g>
		</g>
	</g>
</g>
</svg>
